<?xml version="1.0" standalone="no"?>
<!DOCTYPE svg PUBLIC "-//W3C//DTD SVG 20010904//EN"
 "http://www.w3.org/TR/2001/REC-SVG-20010904/DTD/svg10.dtd">
<svg version="1.0" xmlns="http://www.w3.org/2000/svg"
 width="508.000000pt" height="508.000000pt" viewBox="0 0 508.000000 508.000000"
 preserveAspectRatio="xMidYMid meet">

<g transform="translate(0.000000,508.000000) scale(0.100000,-0.100000)"
fill="#a8ccf0" stroke="none">
<path d="M2724 5019 c-18 -20 -19 -44 -20 -472 0 -249 2 -458 4 -464 3 -10 47
-13 176 -13 l172 0 13 37 c50 138 199 234 343 220 89 -9 202 -80 252 -158 72
-114 55 -301 -36 -387 -10 -9 -18 -22 -18 -28 0 -7 37 -76 82 -154 59 -104 86
-140 97 -137 9 2 191 106 406 230 424 245 422 244 384 306 -10 17 -23 31 -27
31 -5 0 -119 64 -253 141 -134 78 -287 166 -339 197 -52 30 -108 62 -125 72
-16 10 -75 43 -130 75 -55 31 -113 65 -130 75 -32 19 -202 117 -270 155 -22
13 -80 47 -130 75 -340 199 -380 220 -407 220 -14 0 -33 -9 -44 -21z"/>
<path d="M3335 4182 c-45 -16 -83 -43 -111 -79 -25 -32 -28 -46 -28 -103 -1
-91 37 -148 115 -175 102 -36 195 0 244 94 21 43 16 126 -12 174 -39 66 -145
111 -208 89z"/>
<path d="M2709 3913 c-3 -10 -4 -238 -3 -506 1 -466 2 -488 20 -505 10 -9 30
-17 44 -17 22 0 833 458 868 490 10 9 -3 39 -70 155 l-83 143 -95 1 c-80 1
-103 5 -150 28 -74 35 -135 98 -162 170 l-23 58 -171 0 c-155 0 -172 -2 -175
-17z"/>
<path d="M260 3595 l-24 -25 -1 -1028 c0 -571 4 -1036 8 -1048 11 -27 45 -43
72 -35 30 9 795 451 795 460 0 8 -154 278 -164 289 -6 6 -78 4 -114 -3 -23 -4
-152 32 -152 43 0 4 -17 17 -38 30 -33 20 -46 35 -81 92 -38 64 -48 122 -37
230 8 78 103 201 176 229 19 7 44 17 55 23 25 11 98 14 145 5 19 -4 40 -3 45
1 6 4 48 71 94 150 78 135 82 144 64 157 -10 8 -21 15 -25 15 -4 0 -31 15 -60
33 -29 19 -78 47 -108 64 -87 48 -134 75 -145 83 -5 4 -30 19 -55 32 -61 34
-105 59 -166 95 -222 132 -251 143 -284 108z"/>
<path d="M1224 3053 c-10 -16 -29 -47 -41 -70 -12 -23 -36 -63 -52 -90 -17
-26 -37 -63 -45 -81 -15 -33 -15 -35 14 -70 82 -103 97 -228 41 -347 -17 -36
-35 -65 -39 -65 -5 0 -14 -10 -21 -23 -11 -21 -5 -36 65 -158 42 -73 81 -140
88 -146 9 -10 104 41 435 232 232 134 429 249 437 256 8 6 14 26 14 44 0 26
-7 37 -37 58 -45 30 -112 71 -159 98 -19 10 -51 29 -71 40 -21 12 -58 33 -83
47 -25 14 -57 33 -72 43 -14 11 -29 19 -33 19 -4 0 -20 9 -36 21 -17 11 -55
35 -87 51 -31 17 -75 42 -97 57 -22 14 -51 31 -65 38 -14 7 -47 26 -75 42 -27
16 -53 30 -56 30 -4 1 -15 -11 -25 -26z"/>
<path d="M762 2700 c-48 -24 -62 -38 -83 -80 -69 -134 23 -275 178 -272 118 2
212 133 169 237 -8 18 -12 35 -10 38 10 9 -85 85 -117 92 -65 15 -79 13 -137
-15z"/>
<path d="M2730 2160 c-11 -11 -21 -28 -21 -37 -1 -10 -3 -233 -4 -496 -2 -346
0 -479 9 -485 6 -3 87 -7 179 -7 l168 0 6 25 c8 34 27 70 52 98 11 13 21 27
23 31 7 17 88 72 119 82 81 24 109 27 179 16 43 -7 46 -6 64 25 49 86 75 131
120 208 14 25 26 52 26 60 0 9 -84 63 -211 135 -116 66 -272 155 -347 198 -76
44 -144 82 -152 85 -8 3 -17 9 -20 12 -11 16 -125 70 -146 70 -13 0 -33 -9
-44 -20z"/>
<path d="M3700 1483 c-41 -71 -78 -129 -82 -131 -18 -8 -6 -56 23 -92 66 -82
84 -221 41 -320 -23 -52 -91 -127 -142 -157 -79 -46 -182 -52 -281 -17 -82 30
-186 144 -191 210 l-2 24 -181 -2 -180 -3 0 -430 c0 -237 3 -448 6 -469 7 -41
30 -66 61 -66 26 0 1798 1025 1815 1050 13 18 12 24 -4 52 -18 30 -62 57 -528
326 -71 41 -160 92 -197 113 -37 22 -71 39 -76 39 -4 0 -42 -57 -82 -127z"/>
<path d="M3323 1247 c-44 -13 -108 -71 -124 -116 -24 -62 2 -168 51 -209 51
-43 162 -57 219 -27 52 27 113 127 103 168 -1 4 -4 15 -6 25 -13 63 -20 82
-27 82 -5 0 -14 11 -20 24 -22 48 -119 74 -196 53z"/>
</g>
</svg>
