<?xml version="1.0" standalone="no"?>
<!DOCTYPE svg PUBLIC "-//W3C//DTD SVG 20010904//EN"
 "http://www.w3.org/TR/2001/REC-SVG-20010904/DTD/svg10.dtd">
<svg version="1.0" xmlns="http://www.w3.org/2000/svg"
 width="508.000000pt" height="508.000000pt" viewBox="0 0 508.000000 508.000000"
 preserveAspectRatio="xMidYMid meet">

<g transform="translate(0.000000,508.000000) scale(0.100000,-0.100000)"
fill="#67a6e4" stroke="none">
<path d="M1810 4774 c-250 -145 -647 -375 -882 -510 -288 -167 -430 -255 -439
-271 -26 -49 -6 -64 401 -300 212 -122 390 -223 396 -223 6 0 48 64 93 143 64
110 80 145 72 157 -73 104 -95 169 -88 262 8 122 72 214 189 275 72 37 198 40
272 5 94 -43 162 -120 190 -214 5 -16 22 -18 176 -18 l170 0 0 463 c0 437 -1
465 -18 480 -10 10 -32 17 -48 16 -19 -1 -192 -96 -484 -265z"/>
<path d="M1615 4171 c-72 -33 -105 -86 -105 -167 0 -116 108 -202 225 -180 48
9 110 67 131 121 58 152 -101 295 -251 226z"/>
<path d="M2013 3913 c-30 -91 -106 -178 -187 -213 -54 -25 -139 -34 -191 -22
l-41 9 -86 -146 c-63 -107 -82 -149 -74 -157 21 -20 839 -487 861 -492 15 -2
30 4 44 19 21 23 21 27 21 521 l0 498 -170 0 c-154 0 -171 -2 -177 -17z"/>
<path d="M4353 3387 c-210 -122 -384 -224 -387 -227 -2 -3 32 -70 77 -150 l82
-145 95 0 c82 0 103 -4 150 -26 71 -34 126 -89 159 -158 35 -75 37 -202 4
-273 -30 -65 -96 -133 -159 -164 -61 -30 -165 -43 -212 -26 l-30 10 -86 -150
c-47 -83 -86 -153 -86 -157 0 -6 99 -62 590 -341 110 -62 206 -110 221 -110
14 0 33 8 42 18 16 17 17 104 17 1051 0 692 -3 1039 -10 1052 -8 14 -21 19
-48 18 -29 0 -116 -47 -419 -222z"/>
<path d="M3408 2842 c-223 -131 -416 -246 -427 -256 -27 -25 -27 -67 2 -93 30
-28 836 -495 848 -491 5 2 46 68 92 148 l84 145 -29 34 c-52 60 -71 116 -72
211 0 95 18 150 71 211 l31 34 -84 145 c-45 80 -89 146 -96 147 -7 1 -196
-105 -420 -235z"/>
<path d="M4190 2721 c-177 -34 -195 -292 -25 -357 93 -35 185 3 233 96 36 72
23 151 -35 212 -38 39 -112 60 -173 49z"/>
<path d="M2245 2168 c-51 -27 -784 -447 -807 -463 -15 -10 -9 -25 66 -155 l83
-144 99 -1 c83 0 107 -4 147 -23 82 -41 148 -119 180 -214 6 -16 23 -18 177
-18 l170 0 0 500 c0 487 -1 501 -20 520 -25 25 -44 25 -95 -2z"/>
<path d="M905 1399 c-209 -121 -390 -230 -402 -241 -46 -43 -24 -78 84 -141
43 -25 148 -85 233 -135 1020 -590 1463 -842 1480 -842 11 0 29 9 40 20 19 19
20 33 20 480 l0 460 -169 0 -170 0 -26 -59 c-103 -229 -421 -262 -571 -59 -84
113 -83 282 1 393 19 25 35 48 35 52 0 10 -164 293 -170 292 -3 0 -176 -99
-385 -220z"/>
<path d="M1641 1255 c-82 -25 -131 -91 -131 -178 0 -99 85 -187 181 -187 47 1
109 31 141 68 118 141 -16 350 -191 297z"/>
</g>
</svg>
